<svg xmlns="http://www.w3.org/2000/svg" width="526" height="512" viewBox="0 0 72 70">
	<style><![CDATA[.B{stroke-linejoin:round}.C{stroke-width:.2}.D{stroke-linecap:round}.E{fill-opacity:0}.F{font-size:1.693px}.G{opacity:0}.H{text-anchor:middle}.I{stroke:#840000}.J{fill:#840000}.K{fill:none}.L{stroke-width:.254}]]></style>
	<g class="E I J B">
		<path d="M2.419 53.436h2.032v5.08H2.419z" class="L"/>
		<path d="M3.435 53.436v-1.27m0 6.35v1.27" class="C D"/>
		<g fill="#006464" stroke="#006464" class="C">
			<text x="7.326" y="55.341" textLength="2.8255" lengthAdjust="spacingAndGlyphs" class="F G H">R1</text>
			<g class="D">
				<path d="M7.114 55.283l-.423-.605m-.303.605v-1.27"/>
				<path d="M6.388 54.013h.484"/>
				<path d="M6.872 54.013l.121.061"/>
				<path d="M6.993 54.074l.061.061"/>
				<path d="M7.054 54.134l.06.121"/>
				<path d="M7.114 54.255v.181"/>
				<path d="M7.114 54.437l-.06.121"/>
				<path d="M7.054 54.557l-.061.061"/>
				<path d="M6.993 54.618l-.121.061"/>
				<path d="M6.872 54.678h-.484m1.936.605h-.726"/>
				<path d="M7.961 55.283v-1.27"/>
				<path d="M7.961 54.013l-.121.181"/>
				<path d="M7.84 54.195l-.121.121"/>
				<path d="M7.719 54.316l-.121.06"/>
			</g>
			<text x="9.14" y="57.881" textLength="6.454" lengthAdjust="spacingAndGlyphs" class="F G H">2K 1%</text>
			<g class="D">
				<path d="M6.328 56.674l.06-.061"/>
				<path d="M6.388 56.614l.121-.061"/>
				<path d="M6.51 56.553h.302"/>
				<path d="M6.812 56.553l.121.061"/>
				<path d="M6.933 56.614l.061.061"/>
				<path d="M6.993 56.674l.061.121"/>
				<path d="M7.054 56.795v.121"/>
				<path d="M7.054 56.916l-.061.181"/>
				<path d="M6.993 57.097l-.726.726"/>
				<path d="M6.268 57.823h.786m.544 0v-1.27m.726 1.27l-.544-.726"/>
				<path d="M8.324 56.553l-.726.726m2.903.544h-.726"/>
				<path d="M10.138 57.823v-1.27"/>
				<path d="M10.138 56.553l-.121.181"/>
				<path d="M10.017 56.735l-.121.121"/>
				<path d="M9.896 56.856l-.121.061m1.21.906l.968-1.27"/>
				<path d="M11.166 56.553l.121.061"/>
				<path d="M11.287 56.614l.061.121"/>
				<path d="M11.347 56.735l-.061.121"/>
				<path d="M11.287 56.856l-.121.061"/>
				<path d="M11.166 56.916l-.121-.061"/>
				<path d="M11.045 56.856l-.06-.121"/>
				<path d="M10.985 56.735l.06-.121"/>
				<path d="M11.045 56.614l.121-.061m.726 1.21l.061-.121"/>
				<path d="M11.952 57.642l-.061-.121"/>
				<path d="M11.892 57.521l-.121-.06"/>
				<path d="M11.771 57.46l-.121.06"/>
				<path d="M11.65 57.521l-.061.121"/>
				<path d="M11.589 57.642l.061.121"/>
				<path d="M11.65 57.763l.121.06"/>
				<path d="M11.771 57.823l.121-.06"/>
			</g>
		</g>
	</g>
	<g fill="#006464" stroke="#006464" class="E B">
		<g class="C">
			<path d="M52.965 43.276v1.27h1.27l-1.27 1.27-1.27-1.27h1.27" class="D I K"/>
			<text x="52.965" y="48.991" textLength="4.2164998" lengthAdjust="spacingAndGlyphs" class="F G H">GND</text>
			<g class="D">
				<path d="M51.997 47.724l-.121-.061"/>
				<path d="M51.876 47.663h-.181"/>
				<path d="M51.695 47.663l-.181.061"/>
				<path d="M51.514 47.724l-.121.121"/>
				<path d="M51.393 47.845l-.061.121"/>
				<path d="M51.332 47.966l-.06.242"/>
				<path d="M51.272 48.207v.181"/>
				<path d="M51.272 48.389l.06.242"/>
				<path d="M51.332 48.631l.061.121"/>
				<path d="M51.393 48.752l.121.121"/>
				<path d="M51.514 48.873l.181.06"/>
				<path d="M51.695 48.933h.121"/>
				<path d="M51.816 48.933l.181-.06"/>
				<path d="M51.997 48.873l.06-.061"/>
				<path d="M52.058 48.812v-.423"/>
				<path d="M52.058 48.389h-.242m.786.544v-1.27"/>
				<path d="M52.602 47.663l.726 1.27"/>
				<path d="M53.328 48.933v-1.27m.605 1.27v-1.27"/>
				<path d="M53.933 47.663h.302"/>
				<path d="M54.235 47.663l.181.061"/>
				<path d="M54.416 47.724l.121.121"/>
				<path d="M54.537 47.845l.061.121"/>
				<path d="M54.598 47.966l.06.242"/>
				<path d="M54.658 48.207v.181"/>
				<path d="M54.658 48.389l-.06.242"/>
				<path d="M54.598 48.631l-.061.121"/>
				<path d="M54.537 48.752l-.121.121"/>
				<path d="M54.416 48.873l-.181.06"/>
				<path d="M54.235 48.933h-.302"/>
			</g>
		</g>
		<g class="I D">
			<path d="M44.583 30.068h4.064m-4.064-1.524h4.064" stroke-width=".508" class="K"/>
			<path d="M46.615 28.29v-2.794m0 4.826v2.794" class="C J"/>
		</g>
		<text x="51.776" y="28.671" textLength="2.8255" lengthAdjust="spacingAndGlyphs" class="C F G H">C1</text>
		<g class="C D">
			<path d="M51.564 28.492l-.06.061"/>
			<path d="M51.504 28.553l-.181.06"/>
			<path d="M51.322 28.613h-.121"/>
			<path d="M51.201 28.613l-.181-.06"/>
			<path d="M51.02 28.553l-.121-.121"/>
			<path d="M50.899 28.432l-.061-.121"/>
			<path d="M50.838 28.311l-.06-.242"/>
			<path d="M50.778 28.069v-.181"/>
			<path d="M50.778 27.887l.06-.242"/>
			<path d="M50.838 27.646l.061-.121"/>
			<path d="M50.899 27.525l.121-.121"/>
			<path d="M51.02 27.404l.181-.061"/>
			<path d="M51.201 27.343h.121"/>
			<path d="M51.322 27.343l.181.061"/>
			<path d="M51.504 27.404l.06.061m1.21 1.148h-.726"/>
			<path d="M52.411 28.613v-1.27"/>
			<path d="M52.411 27.343l-.121.181"/>
			<path d="M52.29 27.525l-.121.121"/>
			<path d="M52.169 27.646l-.121.061"/>
		</g>
		<text x="52.35" y="31.211" textLength="3.9744999" lengthAdjust="spacingAndGlyphs" class="C F G H">104</text>
		<g class="C D">
			<path d="M51.504 31.153h-.726"/>
			<path d="M51.141 31.153v-1.27"/>
			<path d="M51.141 29.883l-.121.181"/>
			<path d="M51.02 30.065l-.121.121"/>
			<path d="M50.899 30.185l-.121.061m1.512-.363h.121"/>
			<path d="M52.411 29.883l.121.061"/>
			<path d="M52.532 29.944l.061.061"/>
			<path d="M52.592 30.004l.061.121"/>
			<path d="M52.653 30.125l.061.242"/>
			<path d="M52.713 30.367v.302"/>
			<path d="M52.713 30.669l-.061.242"/>
			<path d="M52.653 30.911l-.061.121"/>
			<path d="M52.592 31.032l-.061.061"/>
			<path d="M52.532 31.093l-.121.06"/>
			<path d="M52.411 31.153h-.121"/>
			<path d="M52.29 31.153l-.121-.06"/>
			<path d="M52.169 31.093l-.061-.061"/>
			<path d="M52.109 31.032l-.061-.121"/>
			<path d="M52.048 30.911l-.06-.242"/>
			<path d="M51.988 30.669v-.302"/>
			<path d="M51.988 30.367l.06-.242"/>
			<path d="M52.048 30.125l.061-.121"/>
			<path d="M52.109 30.004l.061-.061"/>
			<path d="M52.169 29.944l.121-.061m1.512.424v.847m-.303-1.331l-.302.907"/>
			<path d="M53.197 30.73h.786"/>
		</g>
		<g class="I J">
			<path d="M58.299 26.766h2.032v5.08h-2.032z" class="L"/>
			<path d="M59.315 26.766v-1.27m0 6.35v1.27" class="C D"/>
		</g>
		<text x="63.206" y="28.671" textLength="2.8255" lengthAdjust="spacingAndGlyphs" class="C F G H">R5</text>
		<g class="C D">
			<path d="M62.994 28.613l-.423-.605m-.302.605v-1.27"/>
			<path d="M62.269 27.343h.484"/>
			<path d="M62.752 27.343l.121.061"/>
			<path d="M62.873 27.404l.06.061"/>
			<path d="M62.934 27.464l.06.121"/>
			<path d="M62.994 27.585v.181"/>
			<path d="M62.994 27.767l-.06.121"/>
			<path d="M62.934 27.887l-.06.061"/>
			<path d="M62.873 27.948l-.121.061"/>
			<path d="M62.752 28.008h-.484m1.875-.665h-.605"/>
			<path d="M63.539 27.343l-.06.605m-.001 0l.06-.061"/>
			<path d="M63.539 27.887l.121-.061"/>
			<path d="M63.659 27.827h.302"/>
			<path d="M63.962 27.827l.121.061"/>
			<path d="M64.083 27.887l.06.061"/>
			<path d="M64.143 27.948l.06.121"/>
			<path d="M64.204 28.069v.302"/>
			<path d="M64.204 28.371l-.06.121"/>
			<path d="M64.143 28.492l-.06.061"/>
			<path d="M64.083 28.553l-.121.06"/>
			<path d="M63.962 28.613h-.302"/>
			<path d="M63.659 28.613l-.121-.06"/>
			<path d="M63.539 28.553l-.06-.061"/>
		</g>
		<text x="66.23" y="31.211" textLength="8.8730001" lengthAdjust="spacingAndGlyphs" class="C F G H">100K 1%</text>
		<g class="C D">
			<path d="M62.934 31.153h-.726"/>
			<path d="M62.571 31.153v-1.27"/>
			<path d="M62.571 29.883l-.121.181"/>
			<path d="M62.45 30.065l-.121.121"/>
			<path d="M62.329 30.185l-.121.061m1.512-.363h.121"/>
			<path d="M63.841 29.883l.121.061"/>
			<path d="M63.962 29.944l.06.061"/>
			<path d="M64.022 30.004l.06.121"/>
			<path d="M64.083 30.125l.06.242"/>
			<path d="M64.143 30.367v.302"/>
			<path d="M64.143 30.669l-.06.242"/>
			<path d="M64.083 30.911l-.06.121"/>
			<path d="M64.022 31.032l-.06.061"/>
			<path d="M63.962 31.093l-.121.06"/>
			<path d="M63.841 31.153h-.121"/>
			<path d="M63.72 31.153l-.121-.06"/>
			<path d="M63.599 31.093l-.06-.061"/>
			<path d="M63.539 31.032l-.06-.121"/>
			<path d="M63.478 30.911l-.06-.242"/>
			<path d="M63.418 30.669v-.302"/>
			<path d="M63.418 30.367l.06-.242"/>
			<path d="M63.478 30.125l.06-.121"/>
			<path d="M63.539 30.004l.06-.061"/>
			<path d="M63.599 29.944l.121-.061m1.209 0h.121"/>
			<path d="M65.05 29.883l.121.061"/>
			<path d="M65.171 29.944l.06.061"/>
			<path d="M65.232 30.004l.06.121"/>
			<path d="M65.292 30.125l.06.242"/>
			<path d="M65.353 30.367v.302"/>
			<path d="M65.353 30.669l-.06.242"/>
			<path d="M65.292 30.911l-.06.121"/>
			<path d="M65.232 31.032l-.06.061"/>
			<path d="M65.171 31.093l-.121.06"/>
			<path d="M65.05 31.153h-.121"/>
			<path d="M64.929 31.153l-.121-.06"/>
			<path d="M64.808 31.093l-.06-.06"/>
			<path d="M64.748 31.032l-.06-.121"/>
			<path d="M64.687 30.911l-.06-.242"/>
			<path d="M64.627 30.669v-.302"/>
			<path d="M64.627 30.367l.06-.242"/>
			<path d="M64.687 30.125l.06-.121"/>
			<path d="M64.748 30.004l.06-.061"/>
			<path d="M64.808 29.944l.121-.061m.968 1.27v-1.27m.726 1.27l-.544-.726"/>
			<path d="M66.623 29.883l-.726.726m2.903.544h-.726"/>
			<path d="M68.437 31.153v-1.27"/>
			<path d="M68.437 29.883l-.121.181"/>
			<path d="M68.316 30.065l-.121.121"/>
			<path d="M68.195 30.185l-.121.061m1.21.907l.968-1.27"/>
			<path d="M69.465 29.883l.121.061"/>
			<path d="M69.586 29.944l.06.121"/>
			<path d="M69.646 30.065l-.06.121"/>
			<path d="M69.586 30.185l-.121.061"/>
			<path d="M69.465 30.246l-.121-.061"/>
			<path d="M69.344 30.185l-.06-.121"/>
			<path d="M69.284 30.065l.06-.121"/>
			<path d="M69.344 29.944l.121-.061m.726 1.21l.06-.121"/>
			<path d="M70.251 30.972l-.06-.121"/>
			<path d="M70.191 30.851l-.121-.06"/>
			<path d="M70.07 30.79l-.121.06"/>
			<path d="M69.949 30.851l-.06.121"/>
			<path d="M69.888 30.972l.06.121"/>
			<path d="M69.949 31.093l.121.06"/>
			<path d="M70.07 31.153l.121-.06"/>
		</g>
		<g class="C">
			<path d="M3.435 62.326v1.27h1.27l-1.27 1.27-1.27-1.27h1.27" class="D I K"/>
			<text x="3.435" y="68.041" textLength="4.2164998" lengthAdjust="spacingAndGlyphs" class="F G H">GND</text>
			<g class="D">
				<path d="M2.467 66.774l-.121-.061"/>
				<path d="M2.346 66.713h-.181"/>
				<path d="M2.165 66.713l-.181.061"/>
				<path d="M1.984 66.774l-.121.121"/>
				<path d="M1.863 66.895l-.061.121"/>
				<path d="M1.802 67.016l-.06.242"/>
				<path d="M1.742 67.257v.181"/>
				<path d="M1.742 67.439l.06.242"/>
				<path d="M1.802 67.681l.061.121"/>
				<path d="M1.863 67.802l.121.121"/>
				<path d="M1.984 67.923l.181.06"/>
				<path d="M2.165 67.983h.121"/>
				<path d="M2.286 67.983l.181-.06"/>
				<path d="M2.467 67.923l.06-.06"/>
				<path d="M2.528 67.862v-.423"/>
				<path d="M2.528 67.439h-.242m.786.544v-1.27"/>
				<path d="M3.072 66.713l.726 1.27"/>
				<path d="M3.798 67.983v-1.27m.605 1.27v-1.27"/>
				<path d="M4.403 66.713h.302"/>
				<path d="M4.705 66.713l.181.061"/>
				<path d="M4.886 66.774l.121.121"/>
				<path d="M5.007 66.895l.061.121"/>
				<path d="M5.068 67.016l.06.242"/>
				<path d="M5.128 67.257v.181"/>
				<path d="M5.128 67.439l-.06.242"/>
				<path d="M5.068 67.681l-.061.121"/>
				<path d="M5.007 67.802l-.121.121"/>
				<path d="M4.886 67.923l-.181.06"/>
				<path d="M4.705 67.983h-.302"/>
			</g>
			<g class="I J">
				<circle cx="19.183" cy="24.226" r=".508"/>
				<g class="D K">
					<path d="M21.215 22.956v-1.778"/>
					<path d="M23.755 22.956h-5.08"/>
				</g>
				<circle cx="23.247" cy="24.226" r=".508"/>
				<path d="M18.675 24.226h-2.54m7.62 0h2.54" class="D"/>
			</g>
			<text x="21.215" y="19.781" textLength="2.8255" lengthAdjust="spacingAndGlyphs" class="F G H">K3</text>
			<g class="D">
				<path d="M20.278 19.723v-1.27m.725 1.27l-.544-.726"/>
				<path d="M21.003 18.453l-.726.726m1.15-.726h.786"/>
				<path d="M22.213 18.453l-.423.484"/>
				<path d="M21.79 18.937h.181"/>
				<path d="M21.971 18.937l.121.061"/>
				<path d="M22.092 18.997l.061.061"/>
				<path d="M22.152 19.058l.061.121"/>
				<path d="M22.213 19.179v.302"/>
				<path d="M22.213 19.481l-.061.121"/>
				<path d="M22.152 19.602l-.061.061"/>
				<path d="M22.092 19.663l-.121.06"/>
				<path d="M21.971 19.723h-.363"/>
				<path d="M21.608 19.723l-.121-.06"/>
				<path d="M21.487 19.663l-.061-.061"/>
			</g>
			<path d="M2.673 6.446l.762-1.27m0 2.54v-2.54m0 0l.762 1.27" class="D I K"/>
			<text x="3.435" y="3.271" textLength="3.9746001" lengthAdjust="spacingAndGlyphs" class="F G H">VCC</text>
			<g class="D">
				<path d="M1.742 1.943l.423 1.27"/>
				<path d="M2.165 3.213l.423-1.27m1.149 1.149l-.06.06"/>
				<path d="M3.677 3.153l-.181.06"/>
				<path d="M3.495 3.213h-.121"/>
				<path d="M3.374 3.213l-.181-.06"/>
				<path d="M3.193 3.153l-.121-.121"/>
				<path d="M3.072 3.032l-.061-.121"/>
				<path d="M3.012 2.911l-.06-.242"/>
				<path d="M2.951 2.669v-.181"/>
				<path d="M2.951 2.487l.06-.242"/>
				<path d="M3.012 2.246l.061-.121"/>
				<path d="M3.072 2.125l.121-.121"/>
				<path d="M3.193 2.004l.181-.06"/>
				<path d="M3.374 1.943h.121"/>
				<path d="M3.495 1.943l.181.06"/>
				<path d="M3.677 2.004l.06.06m1.27 1.028l-.06.06"/>
				<path d="M4.947 3.153l-.181.06"/>
				<path d="M4.765 3.213h-.121"/>
				<path d="M4.644 3.213l-.181-.06"/>
				<path d="M4.463 3.153l-.121-.121"/>
				<path d="M4.342 3.032l-.061-.121"/>
				<path d="M4.282 2.911l-.06-.242"/>
				<path d="M4.221 2.669v-.181"/>
				<path d="M4.221 2.487l.06-.242"/>
				<path d="M4.282 2.246l.061-.121"/>
				<path d="M4.342 2.125l.121-.121"/>
				<path d="M4.463 2.004l.181-.06"/>
				<path d="M4.644 1.943h.121"/>
				<path d="M4.765 1.943l.181.06"/>
				<path d="M4.947 2.004l.06.06"/>
			</g>
			<g class="I J">
				<circle cx="19.183" cy="11.526" r=".508"/>
				<g class="D K">
					<path d="M21.215 10.256V8.478"/>
					<path d="M23.755 10.256h-5.08"/>
				</g>
				<circle cx="23.247" cy="11.526" r=".508"/>
				<path d="M18.675 11.526h-2.54m7.62 0h2.54" class="D"/>
			</g>
			<text x="21.215" y="7.081" textLength="2.8255" lengthAdjust="spacingAndGlyphs" class="F G H">K4</text>
			<g class="D">
				<path d="M20.278 7.023v-1.27m.725 1.27l-.544-.726"/>
				<path d="M21.003 5.753l-.726.726m1.815-.302v.847m-.302-1.331l-.302.907"/>
				<path d="M21.487 6.6h.786"/>
			</g>
		</g>
		<g class="I J">
			<path d="M2.419 15.336h2.032v5.08H2.419z" class="L"/>
			<path d="M3.435 15.336v-1.27m0 6.35v1.27" class="C D"/>
		</g>
		<text x="7.326" y="17.241" textLength="2.8255" lengthAdjust="spacingAndGlyphs" class="C F G H">R4</text>
		<g class="C D">
			<path d="M7.114 17.183l-.423-.605m-.303.605v-1.27"/>
			<path d="M6.388 15.913h.484"/>
			<path d="M6.872 15.913l.121.061"/>
			<path d="M6.993 15.974l.061.061"/>
			<path d="M7.054 16.034l.06.121"/>
			<path d="M7.114 16.155v.181"/>
			<path d="M7.114 16.337l-.06.121"/>
			<path d="M7.054 16.457l-.061.061"/>
			<path d="M6.993 16.518l-.121.061"/>
			<path d="M6.872 16.578h-.484m1.815-.241v.847M7.9 15.853l-.302.907"/>
			<path d="M7.598 16.76h.786"/>
		</g>
		<text x="9.14" y="19.781" textLength="6.454" lengthAdjust="spacingAndGlyphs" class="C F G H">1K 1%</text>
		<g class="C D">
			<path d="M7.054 19.723h-.726"/>
			<path d="M6.691 19.723v-1.27"/>
			<path d="M6.691 18.453l-.121.181"/>
			<path d="M6.57 18.635l-.121.121"/>
			<path d="M6.449 18.756l-.121.061m1.27.906v-1.27m.726 1.27l-.544-.726"/>
			<path d="M8.324 18.453l-.726.726m2.903.544h-.726"/>
			<path d="M10.138 19.723v-1.27"/>
			<path d="M10.138 18.453l-.121.181"/>
			<path d="M10.017 18.635l-.121.121"/>
			<path d="M9.896 18.756l-.121.061m1.21.906l.968-1.27"/>
			<path d="M11.166 18.453l.121.061"/>
			<path d="M11.287 18.514l.061.121"/>
			<path d="M11.347 18.635l-.06.121"/>
			<path d="M11.287 18.756l-.121.061"/>
			<path d="M11.166 18.816l-.121-.061"/>
			<path d="M11.045 18.756l-.06-.121"/>
			<path d="M10.985 18.635l.06-.121"/>
			<path d="M11.045 18.514l.121-.061m.726 1.21l.061-.121"/>
			<path d="M11.952 19.542l-.061-.121"/>
			<path d="M11.892 19.421l-.121-.06"/>
			<path d="M11.771 19.36l-.121.06"/>
			<path d="M11.65 19.421l-.061.121"/>
			<path d="M11.589 19.542l.061.121"/>
			<path d="M11.65 19.663l.121.06"/>
			<path d="M11.771 19.723l.121-.06"/>
		</g>
		<g class="C">
			<g class="I J">
				<circle cx="19.183" cy="49.626" r=".508"/>
				<g class="D K">
					<path d="M21.215 48.356v-1.778"/>
					<path d="M23.755 48.356h-5.08"/>
				</g>
				<circle cx="23.247" cy="49.626" r=".508"/>
				<path d="M18.675 49.626h-2.54m7.62 0h2.54" class="D"/>
			</g>
			<text x="21.215" y="45.181" textLength="2.8255" lengthAdjust="spacingAndGlyphs" class="F G H">K1</text>
			<g class="D">
				<path d="M20.278 45.123v-1.27m.725 1.27l-.544-.726"/>
				<path d="M21.003 43.853l-.726.726m1.936.544h-.726"/>
				<path d="M21.85 45.123v-1.27"/>
				<path d="M21.85 43.853l-.121.181"/>
				<path d="M21.729 44.035l-.121.121"/>
				<path d="M21.608 44.156l-.121.061"/>
			</g>
			<g class="I J">
				<circle cx="19.183" cy="36.926" r=".508"/>
				<g class="D K">
					<path d="M21.215 35.656v-1.778"/>
					<path d="M23.755 35.656h-5.08"/>
				</g>
				<circle cx="23.247" cy="36.926" r=".508"/>
				<path d="M18.675 36.926h-2.54m7.62 0h2.54" class="D"/>
			</g>
			<text x="21.215" y="32.481" textLength="2.8255" lengthAdjust="spacingAndGlyphs" class="F G H">K2</text>
			<g class="D">
				<path d="M20.278 32.423v-1.27m.725 1.27l-.544-.726"/>
				<path d="M21.003 31.153l-.726.726m1.21-.605l.06-.061"/>
				<path d="M21.548 31.214l.121-.061"/>
				<path d="M21.669 31.153h.302"/>
				<path d="M21.971 31.153l.121.061"/>
				<path d="M22.092 31.214l.061.061"/>
				<path d="M22.152 31.274l.061.121"/>
				<path d="M22.213 31.395v.121"/>
				<path d="M22.213 31.516l-.061.181"/>
				<path d="M22.152 31.697l-.726.726"/>
				<path d="M21.427 32.423h.786"/>
			</g>
		</g>
		<g class="I J">
			<path d="M2.419 40.736h2.032v5.08H2.419z" class="L"/>
			<path d="M3.435 40.736v-1.27m0 6.35v1.27" class="C D"/>
		</g>
		<text x="7.326" y="42.641" textLength="2.8255" lengthAdjust="spacingAndGlyphs" class="C F G H">R2</text>
		<g class="C D">
			<path d="M7.114 42.583l-.423-.605m-.303.605v-1.27"/>
			<path d="M6.388 41.313h.484"/>
			<path d="M6.872 41.313l.121.061"/>
			<path d="M6.993 41.374l.061.061"/>
			<path d="M7.054 41.434l.06.121"/>
			<path d="M7.114 41.555v.181"/>
			<path d="M7.114 41.737l-.06.121"/>
			<path d="M7.054 41.857l-.061.061"/>
			<path d="M6.993 41.918l-.121.061"/>
			<path d="M6.872 41.978h-.484m1.21-.544l.06-.061"/>
			<path d="M7.659 41.374l.121-.061"/>
			<path d="M7.779 41.313h.302"/>
			<path d="M8.082 41.313l.121.061"/>
			<path d="M8.203 41.374l.061.061"/>
			<path d="M8.263 41.434l.061.121"/>
			<path d="M8.324 41.555v.121"/>
			<path d="M8.324 41.676l-.061.181"/>
			<path d="M8.263 41.857l-.726.726"/>
			<path d="M7.538 42.583h.786"/>
		</g>
		<text x="9.14" y="45.181" textLength="6.454" lengthAdjust="spacingAndGlyphs" class="C F G H">1K 1%</text>
		<g class="C D">
			<path d="M7.054 45.123h-.726"/>
			<path d="M6.691 45.123v-1.27"/>
			<path d="M6.691 43.853l-.121.181"/>
			<path d="M6.57 44.035l-.121.121"/>
			<path d="M6.449 44.156l-.121.061m1.27.906v-1.27m.726 1.27l-.544-.726"/>
			<path d="M8.324 43.853l-.726.726m2.903.544h-.726"/>
			<path d="M10.138 45.123v-1.27"/>
			<path d="M10.138 43.853l-.121.181"/>
			<path d="M10.017 44.035l-.121.121"/>
			<path d="M9.896 44.156l-.121.061m1.21.906l.968-1.27"/>
			<path d="M11.166 43.853l.121.061"/>
			<path d="M11.287 43.914l.061.121"/>
			<path d="M11.347 44.035l-.06.121"/>
			<path d="M11.287 44.156l-.121.061"/>
			<path d="M11.166 44.216l-.121-.061"/>
			<path d="M11.045 44.156l-.06-.121"/>
			<path d="M10.985 44.035l.06-.121"/>
			<path d="M11.045 43.914l.121-.061m.726 1.21l.061-.121"/>
			<path d="M11.952 44.942l-.061-.121"/>
			<path d="M11.892 44.821l-.121-.06"/>
			<path d="M11.771 44.76l-.121.06"/>
			<path d="M11.65 44.821l-.061.121"/>
			<path d="M11.589 44.942l.061.121"/>
			<path d="M11.65 45.063l.121.06"/>
			<path d="M11.771 45.123l.121-.06"/>
		</g>
		<g class="I J">
			<path d="M2.419 28.036h2.032v5.08H2.419z" class="L"/>
			<path d="M3.435 28.036v-1.27m0 6.35v1.27" class="C D"/>
		</g>
		<text x="7.326" y="29.941" textLength="2.8255" lengthAdjust="spacingAndGlyphs" class="C F G H">R3</text>
		<g class="C D">
			<path d="M7.114 29.883l-.423-.605m-.303.605v-1.27"/>
			<path d="M6.388 28.613h.484"/>
			<path d="M6.872 28.613l.121.061"/>
			<path d="M6.993 28.674l.061.061"/>
			<path d="M7.054 28.734l.06.121"/>
			<path d="M7.114 28.855v.181"/>
			<path d="M7.114 29.036l-.06.121"/>
			<path d="M7.054 29.157l-.061.061"/>
			<path d="M6.993 29.218l-.121.061"/>
			<path d="M6.872 29.278h-.484m1.15-.665h.786"/>
			<path d="M8.324 28.613l-.423.484"/>
			<path d="M7.9 29.097h.181"/>
			<path d="M8.082 29.097l.121.061"/>
			<path d="M8.203 29.157l.061.061"/>
			<path d="M8.263 29.218l.061.121"/>
			<path d="M8.324 29.339v.302"/>
			<path d="M8.324 29.641l-.061.121"/>
			<path d="M8.263 29.762l-.061.061"/>
			<path d="M8.203 29.823l-.121.06"/>
			<path d="M8.082 29.883h-.363"/>
			<path d="M7.719 29.883l-.121-.06"/>
			<path d="M7.598 29.823l-.061-.061"/>
		</g>
		<text x="9.14" y="32.481" textLength="6.454" lengthAdjust="spacingAndGlyphs" class="C F G H">1K 1%</text>
		<g class="C D">
			<path d="M7.054 32.423h-.726"/>
			<path d="M6.691 32.423v-1.27"/>
			<path d="M6.691 31.153l-.121.181"/>
			<path d="M6.57 31.335l-.121.121"/>
			<path d="M6.449 31.456l-.121.06m1.27.907v-1.27m.726 1.27l-.544-.726"/>
			<path d="M8.324 31.153l-.726.726m2.903.544h-.726"/>
			<path d="M10.138 32.423v-1.27"/>
			<path d="M10.138 31.153l-.121.181"/>
			<path d="M10.017 31.335l-.121.121"/>
			<path d="M9.896 31.456l-.121.06m1.21.907l.968-1.27"/>
			<path d="M11.166 31.153l.121.061"/>
			<path d="M11.287 31.214l.061.121"/>
			<path d="M11.347 31.335l-.06.121"/>
			<path d="M11.287 31.456l-.121.06"/>
			<path d="M11.166 31.516l-.121-.061"/>
			<path d="M11.045 31.456l-.06-.121"/>
			<path d="M10.985 31.335l.06-.121"/>
			<path d="M11.045 31.214l.121-.061m.726 1.21l.061-.121"/>
			<path d="M11.952 32.242l-.061-.121"/>
			<path d="M11.892 32.121l-.121-.06"/>
			<path d="M11.771 32.06l-.121.06"/>
			<path d="M11.65 32.121l-.061.121"/>
			<path d="M11.589 32.242l.061.121"/>
			<path d="M11.65 32.363l.121.06"/>
			<path d="M11.771 32.423l.121-.06"/>
		</g>
	</g>
	<g class="E I J B C">
		<text x="46.615" y="11.177" textLength="2.7046001" lengthAdjust="spacingAndGlyphs" class="F G">AD</text>
		<g class="D">
			<path d="M46.988 10.648h.605"/>
			<path d="M46.867 11.011l.423-1.27"/>
			<path d="M47.291 9.741l.423 1.27m.423 0v-1.27"/>
			<path d="M48.137 9.741h.302"/>
			<path d="M48.44 9.741l.181.06"/>
			<path d="M48.621 9.801l.121.121"/>
			<path d="M48.742 9.922l.061.121"/>
			<path d="M48.803 10.043l.06.242"/>
			<path d="M48.863 10.285v.181"/>
			<path d="M48.863 10.467l-.06.242"/>
			<path d="M48.803 10.708l-.061.121"/>
			<path d="M48.742 10.829l-.121.121"/>
			<path d="M48.621 10.95l-.181.06"/>
			<path d="M48.44 11.011h-.302"/>
		</g>
	</g>
	<g fill="#009600" stroke="#009600" class="B">
		<g class="C D E">
			<path d="M52.965 19.146h6.35m-33.02 30.48h10.16m-10.16-38.1h10.16"/>
			<path d="M26.295 24.226h10.16m0-12.7v12.7"/>
			<path d="M36.455 24.226v12.7m22.86-17.78v6.35m0 13.97v-6.35"/>
			<path d="M46.615 25.496v-6.35m6.35 20.32h6.35m-55.88-17.78v2.54m49.53 19.05v-3.81m-6.35-6.35v6.35m-43.18-2.54v2.54"/>
			<path d="M46.615 39.466h6.35m-49.53-5.08v2.54"/>
			<path d="M26.295 36.926h10.16"/>
			<path d="M36.455 36.926v12.7m10.16-30.48h6.35m0-7.62v7.62"/>
			<path d="M36.455 11.526h16.51m-49.53 12.7v2.54"/>
			<path d="M3.435 24.226h12.7m-12.7 25.4v2.54m0 7.62v2.54"/>
			<path d="M3.435 36.926h12.7m-12.7 12.7h12.7m-12.7-41.91v3.81"/>
			<path d="M3.435 11.526v2.54"/>
			<path d="M3.435 11.526h12.7m-12.7 35.56v2.54"/>
		</g>
		<g stroke-width=".152">
			<circle cx="3.435" cy="36.926" r=".457"/>
			<circle cx="3.435" cy="24.226" r=".457"/>
			<circle cx="3.435" cy="11.526" r=".457"/>
			<circle cx="3.435" cy="49.626" r=".457"/>
			<circle cx="52.965" cy="19.146" r=".457"/>
			<circle cx="36.455" cy="36.926" r=".457"/>
			<circle cx="36.455" cy="24.226" r=".457"/>
			<circle cx="36.455" cy="11.526" r=".457"/>
			<circle cx="52.965" cy="39.466" r=".457"/>
		</g>
	</g>
</svg>
